<svg version="1.1" id="Layer_3" xmlns="http://www.w3.org/2000/svg" x="0" y="0" viewBox="0 0 197.95 51.06" xml:space="preserve"><style>.st0{opacity:.3}.st1{opacity:0}.st1,.st2,.st3{fill:#abb9e0}.st2{opacity:.0323}.st3{opacity:.0645}.st4{opacity:.0968}.st4,.st5,.st6{fill:#abb9e0}.st5{opacity:.129}.st6{opacity:.1613}.st7{opacity:.1935}.st7,.st8,.st9{fill:#abb9e0}.st8{opacity:.2258}.st9{opacity:.2581}.st10{opacity:.2903}.st10,.st11,.st12{fill:#abb9e0}.st11{opacity:.3226}.st12{opacity:.3548}.st13{opacity:.3871}.st13,.st14,.st15{fill:#abb9e0}.st14{opacity:.4194}.st15{opacity:.4516}.st16{opacity:.4839}.st16,.st17,.st18{fill:#abb9e0}.st17{opacity:.5161}.st18{opacity:.5484}.st19{opacity:.5806}.st19,.st20,.st21{fill:#abb9e0}.st20{opacity:.6129}.st21{opacity:.6452}.st22{opacity:.6774}.st22,.st23,.st24{fill:#abb9e0}.st23{opacity:.7097}.st24{opacity:.7419}.st25{opacity:.7742}.st25,.st26,.st27{fill:#abb9e0}.st26{opacity:.8065}.st27{opacity:.8387}.st28{opacity:.871}.st28,.st29,.st30{fill:#abb9e0}.st29{opacity:.9032}.st30{opacity:.9355}.st31{opacity:.9677}.st31,.st32{fill:#abb9e0}</style><g class="st0"><path transform="rotate(-89.77 96.375 48.998)" class="st1" d="M94.71-47.36h3.33v192.72h-3.33z"/><path transform="matrix(.00403 -1 1 .00403 49.253 147.463)" class="st2" d="M96.99-45.19h3.33V143.2h-3.33z"/><path transform="matrix(.00406 -1 1 .00406 51.516 149.749)" class="st3" d="M99.27-43.02h3.33v184.07h-3.33z"/><path transform="matrix(.00409 -1 1 .00409 53.779 152.035)" class="st4" d="M101.55-40.85h3.33v179.74h-3.33z"/><path transform="matrix(.00412 -1 1 .00412 56.041 154.32)" class="st5" d="M103.83-38.68h3.33v175.41h-3.33z"/><path transform="matrix(.00415 -1 1 .00415 58.303 156.607)" class="st6" d="M106.11-36.51h3.33v171.08h-3.33z"/><path transform="matrix(.00419 -1 1 .00419 60.565 158.893)" class="st7" d="M108.4-34.34h3.33v166.76h-3.33z"/><path transform="matrix(.00423 -1 1 .00423 62.826 161.179)" class="st8" d="M110.68-32.17h3.33v162.43h-3.33z"/><path transform="matrix(.00426 -1 1 .00426 65.087 163.464)" class="st9" d="M112.96-30h3.33v158.1h-3.33z"/><path transform="rotate(-89.754 116.905 49.056)" class="st10" d="M115.24-27.83h3.33v153.77h-3.33z"/><path transform="matrix(.00435 -1 1 .00435 69.607 168.035)" class="st11" d="M117.52-25.66h3.33v149.44h-3.33z"/><path transform="rotate(-89.748 121.468 49.068)" class="st12" d="M119.8-23.49h3.33v145.12h-3.33z"/><path transform="matrix(.00445 -1 1 .00445 74.125 172.606)" class="st13" d="M122.08-21.32h3.33v140.79h-3.33z"/><path transform="rotate(-89.742 126.03 49.08)" class="st14" d="M124.36-19.15h3.33v136.46h-3.33z"/><path transform="matrix(.00455 -1 1 .00455 78.64 177.176)" class="st15" d="M126.65-16.98h3.33v132.13h-3.33z"/><path class="st16" d="M194.49 51.06l-127.8-.59.01-3.34 127.8.59z"/><path class="st17" d="M194.61 51.06l-123.48-.58.01-3.33 123.48.57z"/><path class="st18" d="M194.73 51.06l-119.15-.57.01-3.33 119.14.56z"/><path class="st19" d="M194.84 51.06L80.02 50.5l.01-3.33 114.82.55z"/><path class="st20" d="M194.96 51.06l-110.49-.54.01-3.34 110.49.54z"/><path class="st21" d="M195.08 51.06l-106.17-.53.01-3.34 106.17.53z"/><path class="st22" d="M195.2 51.06l-101.84-.52.01-3.33 101.83.51z"/><path class="st23" d="M195.31 51.06l-97.51-.51.01-3.33 97.51.5z"/><path class="st24" d="M195.43 51.06l-93.18-.49.01-3.34 93.18.49z"/><path class="st25" d="M195.55 51.06l-88.86-.48.01-3.34 88.86.49z"/><path class="st26" d="M195.66 51.06l-84.52-.47.01-3.33 84.52.47z"/><path class="st27" d="M195.78 51.06l-80.2-.46.01-3.33 80.2.46z"/><path class="st28" d="M195.9 51.06l-75.87-.44.01-3.34 75.87.45z"/><path class="st29" d="M196.02 51.06l-71.55-.43.01-3.34 71.55.44z"/><path class="st30" d="M196.13 51.06l-67.21-.42.01-3.33 67.21.42z"/><path class="st31" d="M196.25 51.06l-62.88-.41v-3.33l62.89.41z"/><path class="st32" d="M196.37 51.06l-58.56-.39.01-3.34 58.56.4z"/></g><g class="st0"><path class="st1" d="M0 0l197.95.24V3.2L0 2.96z"/><path class="st2" d="M4.45 0l193.5.24V3.2L4.45 2.96z"/><path class="st3" d="M8.89 0l189.06.24V3.2L8.89 2.96z"/><path class="st4" d="M13.34 0l184.61.24V3.2L13.34 2.96z"/><path class="st5" d="M17.78 0l180.17.24V3.2L17.78 2.96z"/><path class="st6" d="M22.23 0l175.72.24V3.2L22.23 2.96z"/><path class="st7" d="M26.67 0l171.28.24V3.2L26.67 2.96z"/><path class="st8" d="M31.12 0l166.83.24V3.2L31.12 2.96z"/><path class="st9" d="M35.56 0l162.39.24V3.2L35.56 2.96z"/><path class="st10" d="M40.01 0l157.94.24V3.2L40.01 2.96z"/><path class="st11" d="M44.45 0l153.5.24V3.2l-153.5-.24z"/><path class="st12" d="M48.9 0l149.05.24V3.2L48.9 2.96z"/><path class="st13" d="M53.34 0l144.61.24V3.2L53.34 2.96z"/><path class="st14" d="M57.79 0l140.16.24V3.2L57.79 2.96z"/><path class="st15" d="M62.23 0l135.72.24V3.2L62.23 2.96z"/><path class="st16" d="M66.68 0l131.27.24V3.2L66.68 2.96z"/><path class="st17" d="M71.12 0l126.83.24V3.2L71.12 2.96z"/><path class="st18" d="M75.57 0l122.38.24V3.2L75.57 2.96z"/><path class="st19" d="M80.01 0l117.94.24V3.2L80.01 2.96z"/><path class="st20" d="M84.46 0l113.49.24V3.2L84.46 2.96z"/><path class="st21" d="M88.9 0l109.05.24V3.2L88.9 2.96z"/><path class="st22" d="M93.35 0l104.6.24V3.2l-104.6-.24z"/><path class="st23" d="M97.79 0l100.16.24V3.2L97.79 2.96z"/><path class="st24" d="M102.24 0l95.71.24V3.2l-95.71-.24z"/><path class="st25" d="M106.69 0l91.26.24V3.2l-91.26-.24z"/><path class="st26" d="M111.13 0l86.82.24V3.2l-86.82-.24z"/><path class="st27" d="M115.58 0l82.37.24V3.2l-82.37-.24z"/><path class="st28" d="M120.02 0l77.93.24V3.2l-77.93-.24z"/><path class="st29" d="M124.47 0l73.48.24V3.2l-73.48-.24z"/><path class="st30" d="M128.91 0l69.04.24V3.2l-69.04-.24z"/><path class="st31" d="M133.36 0l64.59.24V3.2l-64.59-.24z"/><path class="st32" d="M137.8 0l60.15.24V3.2l-60.15-.24z"/></g></svg>