<svg version="1.1" id="Layer_3" xmlns="http://www.w3.org/2000/svg" x="0" y="0" viewBox="0 0 263 102.59" xml:space="preserve"><style>.st3{opacity:.2}.st4{opacity:.1}</style><path opacity=".4" fill="none" stroke="#000" stroke-width=".2" stroke-miterlimit="10" d="M106.48 50.6V24.56l23.02 13.02z"/><linearGradient id="SVGID_1_" gradientUnits="userSpaceOnUse" x1="0" y1="38.23" x2="106.604" y2="38.23"><stop offset="0" stop-color="#eb5d46"/><stop offset=".115" stop-color="#e65943"/><stop offset=".617" stop-color="#d64939"/><stop offset="1" stop-color="#d04435"/></linearGradient><path d="M0 24.85c28.16-5.89 38.03-4.75 52.28-1.11 20.88 5.34 35.74 6.08 54.33-.23v28.15c-15.6 5.59-30.01 4.46-42.98 2.32C48.87 51.56 35.59 40.84 0 52.56c2.26-4.78 5.32-9.57 7.31-16.18C5.68 33.42 3.1 28.61 0 24.85z" fill="url(#SVGID_1_)"/><linearGradient id="SVGID_2_" gradientUnits="userSpaceOnUse" x1="-70.518" y1="-2.135" x2="-65.724" y2="1.813" gradientTransform="scale(-1 1) rotate(43.93 -174.235 -172.763)"><stop offset="0" stop-color="#fff"/><stop offset=".161" stop-color="#f9f9f9"/><stop offset=".381" stop-color="#e7e7e7"/><stop offset=".635" stop-color="#cacaca"/><stop offset=".913" stop-color="#a2a2a2"/><stop offset=".972" stop-color="#999"/></linearGradient><path d="M230.12 25.97c-.03 1.55-.98 3.18-2.57 3.14-2.16-.05-16.41-.77-20.96-3.32-4.55-2.55 2.25-3.63 2.25-3.63s17.69.67 18.96.7c1.44.03 2.35 1.68 2.32 3.11z" fill="url(#SVGID_2_)"/><path d="M225.38 25.92c-.04 1.63.96 2.97 2.22 2.99 1.26.03 2.31-1.27 2.34-2.9.03-1.63-.96-2.97-2.22-2.99-1.26-.03-2.31 1.27-2.34 2.9z"/><path class="st3" d="M218.37 25.36l-1.3-2.89c2.7.1 5.53.21 7.62.28-1.18.09-1.38 1.84-1.23 3.22l-5.09-.61z"/><path class="st4" d="M206.15 25.52c-.08-.05-.15-.1-.22-.15l-.1-.07c-.07-.05-.13-.1-.19-.15-.04-.04-.08-.07-.12-.1l-.06-.06c-.13-.13-.23-.26-.3-.38 1.01.04 2.03.13 3.05.27 7.9 1.1 11.64 1.59 17.03 1.92 0 .01.4 2.14 2.3 2.31-1.41-.03-7.93-.35-13.57-1.27-2.56-.43-4.92-.97-6.52-1.63-.15-.07-.3-.13-.44-.2-.15-.07-.29-.14-.42-.22-.12-.07-.24-.14-.35-.21-.02-.02-.06-.04-.09-.06z"/><linearGradient id="SVGID_3_" gradientUnits="userSpaceOnUse" x1="-20.817" y1="15.961" x2="-15.345" y2="20.63" gradientTransform="scale(-1 1) rotate(43.93 -174.235 -172.763)"><stop offset="0" stop-color="#fff"/><stop offset=".161" stop-color="#f9f9f9"/><stop offset=".381" stop-color="#e7e7e7"/><stop offset=".635" stop-color="#cacaca"/><stop offset=".913" stop-color="#a2a2a2"/><stop offset=".972" stop-color="#999"/></linearGradient><path d="M210.94 73.98c-.04 2.26-1.38 4.16-3.39 4.12-2.87-.06-21.62-1.02-27.66-4.4-6.04-3.38 2.99-4.81 2.99-4.81s23.21.86 24.91.89c2.19.05 3.18 2.31 3.15 4.2z" fill="url(#SVGID_3_)"/><path d="M204.65 73.86c-.06 2.16 1.25 3.95 2.92 3.99 1.67.05 3.08-1.67 3.13-3.83.06-2.16-1.25-3.95-2.92-4-1.66-.04-3.07 1.68-3.13 3.84z"/><path class="st4" d="M179.69 73.59c2.46-.21 5.08-.2 7.75.17 7.9 1.1 17.22 1.84 17.23 1.85.53 1.5 1.61 2.39 2.88 2.49-2.87-.06-21.62-1.02-27.66-4.4-.08-.03-.13-.07-.2-.11z"/><path d="M149.05 34.5c-2.97-3.38-7.79-10.79-10.43-11.58-2.65-.79-4.36-.3-4.36-.3l-.76 13.07 15.55-1.19zm80.77 2.77c-7.5-13.97-19.59-33.32-22.5-35.74C204.41-.89 196.25.29 196.25.29l-2.32 34.68 35.89 2.3z" fill="#e6e6e6"/><linearGradient id="SVGID_4_" gradientUnits="userSpaceOnUse" x1="-45.88" y1="-12.934" x2="-25.745" y2="7.363" gradientTransform="scale(-1 1) rotate(43.93 -174.235 -172.763)"><stop offset=".393" stop-color="#fff"/><stop offset=".495" stop-color="#fafafa"/><stop offset=".616" stop-color="#ececec"/><stop offset=".746" stop-color="#d4d4d4"/><stop offset=".881" stop-color="#b3b3b3"/><stop offset=".972" stop-color="#999"/></linearGradient><path d="M157.43 33.25c13.61-.58 74.32-4.53 81.96-1.43 2.69 1.09 8.22 7.03 8.22 7.03s15.65 5.39 15.38 11.75c-.22 5.39-13.21 10.4-29.6 9.36-16.39-1.05-57.92-2.86-69.09-6.61S122.02 36.3 122.02 36.3s24.74-2.58 35.41-3.05z" fill="url(#SVGID_4_)"/><path class="st4" d="M156.9 50.63c4.87 1.2 63.58 5.07 63.58 5.07 13.07.71 30.12 1.05 36.88-1.9 3.92-1.71 5.3-3.09 5.56-4.06.05.28.08.57.07.86-.22 5.39-13.21 10.4-29.6 9.36-16.39-1.05-57.92-2.86-69.09-6.61-1.95-.66-4.51-1.6-7.4-2.72z"/><path d="M158.55 36.53c-17.07-.54-33.22-20.58-40.87-20.87-7.54-.29-7.41.89-7.41.89l16.93 19.69c.01 0 32.86.34 31.35.29z" fill="#093687"/><path d="M186.62 44.97c.36.75 1.11 1.13 1.7.86.58-.27.77-1.11.41-1.86-.36-.75-1.11-1.14-1.69-.86-.59.27-.78 1.11-.42 1.86zm34.69.14c.35.75 1.11 1.14 1.69.86.58-.28.77-1.11.41-1.86-.36-.75-1.11-1.14-1.69-.86-.58.28-.76 1.11-.41 1.86zm-4.34-.02c.35.75 1.11 1.14 1.69.86.58-.27.77-1.1.41-1.85-.35-.75-1.11-1.14-1.69-.87-.58.28-.76 1.11-.41 1.86zm-4.33-.02c.35.75 1.11 1.14 1.69.86.58-.27.77-1.1.41-1.86-.35-.75-1.11-1.13-1.7-.87-.57.29-.75 1.12-.4 1.87zm-4.34-.02c.36.75 1.11 1.14 1.69.86.58-.27.77-1.11.41-1.86-.35-.75-1.11-1.14-1.7-.86-.57.28-.75 1.11-.4 1.86zm-4.33-.01c.36.75 1.11 1.14 1.69.86.58-.27.77-1.1.41-1.86-.36-.75-1.12-1.14-1.7-.87-.58.29-.76 1.12-.4 1.87zm-4.34-.02c.36.75 1.11 1.14 1.69.86.58-.27.77-1.11.41-1.86-.36-.75-1.11-1.14-1.7-.86-.57.28-.75 1.11-.4 1.86zm-4.34-.02c.36.75 1.11 1.13 1.69.86.58-.27.77-1.1.41-1.86-.36-.75-1.11-1.14-1.69-.86-.58.28-.76 1.11-.41 1.86zm-4.33-.02c.35.75 1.11 1.14 1.69.86.58-.28.77-1.11.41-1.86-.36-.75-1.11-1.14-1.7-.87-.57.29-.76 1.12-.4 1.87zm-8.68-.03c.35.75 1.11 1.14 1.69.87.58-.28.77-1.11.41-1.86-.36-.75-1.11-1.14-1.7-.86-.57.27-.75 1.1-.4 1.85zm-4.33-.02c.35.75 1.11 1.14 1.69.87.58-.28.77-1.11.41-1.86-.36-.75-1.11-1.14-1.7-.86-.57.27-.76 1.1-.4 1.85zm64.3-5.41c3.25-2.45 1.09-4.43.72-5.16 2.35 2.04 4.64 4.5 4.64 4.5 1.21 2.36-1.1 5.85-4.97 6.09-3.17.2-11.2.14-11.2.14l.97-4.42c.01 0 7.74.44 9.84-1.15z"/><path class="st3" d="M224.49 59.43c-3.9-.22-8.29-.47-12.89-.76l3.93-2.78 4.95-.19c.78 2.59 1.48 3.59 4.01 3.73z"/><path d="M149.67 47.78c-4.02-1.61-8.23-3.34-12.12-4.95l.45-2.25 8.15.29c-.28 2.07.03 5.51 3.52 6.91z" opacity=".4"/><path d="M146.16 40.87c-16.43 10.95-28.93 17.56-33.24 16.21-5.53-1.75-5.55-2.17-5.55-2.17l19.92-16.66c0-.01 20.12 1.78 18.87 2.62z" fill="#f2f2f2"/><path class="st3" d="M184.79 73.22l6.56-3.18 4.42 1.62c-1.48 1.04-1.61 1.86-1.69 2.69-.08.78.81 2.58 2.57 2.99-3.06-.32-6.34-.74-9.29-1.32-.42-.08-.83-.17-1.23-.26l-.15-.03c-.45-.1-.88-.2-1.31-.31l.12-2.2z"/><path d="M200.71 51.96c10.63 1.23 21.36 2.8 19.59 3.97-43.97 29.3-81.17 48.33-87.18 46.55l-8.72-2.57 56.64-47.13c0-.01 9.98-1.94 19.67-.82zM22.27 40.03c.1-2.11.15-3.17.24-5.28-.39.07-.59.11-.98.19-.22 1.86-1.03 3.6-2.65 4.03-1.77.47-2.4-1.26-2.31-3.35.09-2.07.91-4.32 2.68-4.79 1.63-.43 2.28 1.07 2.33 2.88.39-.08.59-.12.98-.19.08-1.64.11-2.47.19-4.11.57-.1.85-.15 1.42-.23-.19 4.25-.29 6.37-.49 10.62-.57.09-.85.13-1.41.23zm-3.06-7.91c-.75.2-1.13 1.54-1.2 3.06-.07 1.52.19 2.66.94 2.46.78-.2 1.15-1.51 1.22-3.03.07-1.52-.19-2.69-.96-2.49zm5.32 8.09c.21-4.54.31-6.82.52-11.36.57-.07.85-.1 1.41-.16-.21 4.54-.31 6.82-.52 11.36-.57.06-.85.09-1.41.16zm5.99-10.95c1.86-.03 2.86 1.71 2.75 4.11-.11 2.36-1.26 3.98-3.12 4-1.85.03-2.87-1.54-2.76-3.93.11-2.38 1.28-4.16 3.13-4.18zm-.05 1.19c-.85.01-1.53 1.12-1.61 2.9-.08 1.79.5 2.82 1.35 2.81.88-.01 1.56-1.07 1.64-2.85.08-1.78-.51-2.87-1.38-2.86zm4.46 9.53c.11-2.37.16-3.56.27-5.93-.67-.05-1-.07-1.66-.09.02-.5.03-.76.06-1.26.67.03 1 .05 1.66.09.08-1.67.11-2.5.19-4.17.6.04.9.07 1.5.12-.21 4.54-.31 6.82-.52 11.36-.61-.06-.9-.08-1.5-.12zm13.09.46c-4.07-.86-6.11-1.25-10.2-1.7l.05-1.19c4.09.45 6.13.84 10.2 1.7l-.05 1.19zm-8.73-5.12c.1-2.13.15-3.2.24-5.33 3.06.39 4.58.67 7.63 1.28l-.05 1.2c-2.46-.5-3.68-.72-6.15-1.08-.05 1.18-.08 1.77-.14 2.95 2.5.36 3.75.59 6.24 1.1l-.05 1.19c-3.08-.64-4.63-.92-7.72-1.31zm15.86 2.48c-.97.01-3.06-.31-4.58-.65-.5-.11-1-.24-1.51-.35.06-1.38.09-2.07.16-3.45 1.41.3 2.11.46 3.52.79.02-.37.03-.56.04-.93-1.43-.33-2.14-.49-3.57-.8l.05-1.17c2.02.44 3.03.67 5.05 1.15l-.15 3.21c-1.41-.33-2.11-.49-3.52-.81l-.05 1.19c1.34.35 3.46.69 4.44.65.05.46.07.7.12 1.17zm-5.22 4.41l.2-4.33c.59.13.88.2 1.47.33l-.05 1.07c1.74.4 2.61.6 4.35 1.02l.05-1.09 1.47.35-.2 4.35c-2.92-.69-4.37-1.05-7.29-1.7zm5.92-.75c-1.74-.41-2.61-.62-4.35-1.02-.02.36-.03.55-.04.91 1.74.4 2.61.6 4.35 1.02.01-.36.02-.54.04-.91zm1.71-4.96c-.05.99-.07 1.49-.11 2.48l-1.47-.35c.12-2.51.17-3.77.29-6.28l1.47.35c-.05 1.04-.07 1.55-.12 2.59.64.15.96.23 1.6.38-.02.48-.03.73-.06 1.21-.64-.15-.96-.23-1.6-.38zm10.88 7.31c-.98-.7-2.29-2.42-2.57-3.59-.33 1.09-1.53 2.38-2.87 2.73-.34-.53-.5-.79-.84-1.32 1.95-.59 2.96-2.14 3.06-4.53.01-.12.01-.19.01-.31-.9-.19-1.36-.29-2.26-.5l.05-1.19c2.4.54 3.59.8 5.99 1.25l-.05 1.19c-.88-.16-1.31-.25-2.19-.43-.01.12-.01.18-.01.3-.11 2.4.9 4.19 2.56 5.39-.35.4-.53.61-.88 1.01zm1.49 2.99c.21-4.54.31-6.82.52-11.36l1.49.25c-.21 4.54-.31 6.82-.52 11.36l-1.49-.25zm12.26-9.76c-.07 1.46-.28 2.9-.54 3.98.66.01.99.01 1.64.01l-.05 1.2c-4.11.04-6.16-.16-10.24-.74l.05-1.2c2.87.41 4.3.57 7.18.69.2-.76.38-2.1.41-2.8-2.45-.09-3.68-.21-6.12-.52l.05-1.17c3.04.38 4.56.52 7.62.55zm-8.16 10.23c.09-1.88.13-2.82.22-4.71.59.08.89.11 1.48.18-.02.51-.03.76-.06 1.27 1.86.2 2.8.28 4.67.35.02-.52.04-.78.06-1.29.59.02.89.03 1.49.04-.09 1.89-.13 2.84-.22 4.73-3.06-.04-4.59-.17-7.64-.57zm6.26-1.78c-1.87-.07-2.8-.15-4.67-.35l-.05 1.15c1.86.2 2.8.28 4.67.35l.05-1.15zm12.37-3.45c-.01.29-.02.44-.03.73 2.14-.32 3.34.04 3.28 1.17-.06 1.27-1.61 2.56-4.2 3.07-2.59.51-4.05-.17-3.99-1.44.05-1.13 1.29-1.98 3.4-2.5.01-.29.02-.44.03-.73-1.76.31-2.64.42-4.4.56l.05-1.2c4.13-.33 6.2-.7 10.37-2.07l-.05 1.2c-1.78.59-2.67.83-4.46 1.21zm3.38-2.45c-1.69.37-3.32-.16-3.94-1.12-.63 1.24-2.28 2.37-4.1 2.71-.23-.43-.34-.65-.57-1.09 1.78-.25 3.37-1.23 3.82-2.45-1.29.23-1.93.31-3.21.45l.05-1.19c3.3-.34 4.95-.64 8.28-1.65l-.05 1.19c-1.3.39-1.95.56-3.24.84.41 1.05 2.12 1.35 3.67.93-.25.46-.47.92-.71 1.38zm-4.2 4.5c-1.55.3-2.56.75-2.58 1.31-.03.55.95.76 2.5.45 1.55-.3 2.59-.91 2.61-1.46.02-.57-.98-.61-2.53-.3z" fill="#fff"/></svg>